<svg width="500" height="500" xmlns="http://www.w3.org/2000/svg">

 <g>
  <title>Layer 1</title>
  <path id="svg_1" class="st0" d="m8.23,255.32l128.11,0.01l0,0.01c54.86,0.4 100.04,31.53 106.96,84.6l13.75,0c6.96,-53.33 52.54,-84.62 107.76,-84.62l120.55,0l0,108.71l-84.59,0l0,11.84l90.51,0a5.92,5.92 0 0 0 5.92,-5.92l0,-120.55a5.92,5.92 0 0 0 -5.92,-5.92l-126.47,0c-55.23,0 -100.81,-31.3 -107.76,-84.63l-13.75,0c-6.95,53.33 -52.53,84.63 -107.76,84.63l-121.31,0c0.48,-35.24 1.23,-90.76 1.5,-108.71l83.87,0l0,-11.84l-88.8,0c-0.28,-0.04 -0.57,-0.07 -0.86,-0.07c-1.65,-0.01 -5.36,0.58 -5.92,5.99l-0.04,0c0,0.12 0,0.24 0.01,0.36c-0.02,0.27 -0.03,0.54 -0.04,0.83l-0.25,17.5c-0.16,11.31 -0.37,26.39 -0.57,41.47l-0.82,60.31c-0.02,1.58 0.59,3.11 1.7,4.24c1.15,1.09 2.63,1.76 4.22,1.76z" fill="#00007f"/>
  <path id="svg_2" class="st0" d="m157.08,378.43l186.18,0l0,-16.95l-186.18,0l0,16.95zm-89,122.23l0.71,0c17.44,0 33.92,-6.14 46.39,-17.28c14.77,-13.2 22.9,-31.33 22.9,-51.05l0,-155.48l-16.95,0l0,155.48c0,15.2 -6.38,29.07 -17.98,39.05c-9.24,7.95 -21.4,12.33 -34.24,12.33l-0.84,0c-15.2,0 -29.07,-6.38 -39.04,-17.98c-7.95,-9.24 -12.33,-21.4 -12.33,-34.24l0,-0.84c0,-12.84 4.38,-25 12.33,-34.24c9.98,-11.59 23.84,-17.98 39.05,-17.98l34.05,0l0,-16.95l-34.05,0c-19.72,0 -37.85,8.13 -51.05,22.9c-11.14,12.48 -17.28,28.96 -17.28,46.4l0,0.58c0,17.44 6.14,33.92 17.29,46.39c13.19,14.77 31.32,22.91 51.04,22.91zm89.02,-363.33l186.1,0l0,-16.95l-186.1,0l0,16.95z" fill="#00007f"/>
  <path id="svg_3" class="st0" d="m138.09,70.31c0,-26.74 22.08,-50.82 48.22,-52.58a51.853,51.853 0 0 1 40.19,15.07c9.8,9.8 15.19,22.8 15.19,36.61l0,31.93l16.95,0l0,-31.93c0,-37.91 -30.84,-68.75 -68.75,-68.75s-68.75,30.84 -68.75,68.75l0,152.49l16.95,0l0,-151.59zm340.4,-50.85c-12.74,-12.12 -29.86,-18.8 -48.21,-18.8c-12.8,0 -25.04,3.44 -35.38,9.95c-20.45,12.87 -32.65,34.69 -32.65,58.38l0,152.95l16.95,0l0,-152.95c0,-17.8 9.18,-34.21 24.56,-43.91c7.75,-4.89 17,-7.47 26.73,-7.47c13.85,0 26.75,5.02 36.33,14.14c11.36,10.82 17.12,26.03 15.8,41.74c-0.88,10.47 -5.12,20.64 -11.92,28.65c-9.85,11.59 -24.16,18.24 -39.27,18.24l-33.27,0l0,16.95l33.27,0c19.45,0 37.4,-7.94 50.55,-22.35a68.161,68.161 0 0 0 17.7,-42.57c0.96,-20.22 -6.56,-39.02 -21.19,-52.95zm-116.24,410.68c0,27.59 -22.85,51.72 -49.9,52.69c-14.43,0.5 -28.03,-4.78 -38.28,-14.88c-9.95,-9.85 -15.43,-22.95 -15.43,-36.89l0,-33.62l-16.95,0l0,33.62c0,18.37 7.15,35.63 20.13,48.61l0.34,0.34c12.95,12.77 30.08,19.8 48.25,19.8l0.98,-0.01c37.38,-0.52 67.8,-31.36 67.8,-68.75l0,-154.16l-16.95,0l0,153.25l0.01,0z" fill="#00007f"/>
 </g>
</svg>